<svg width="40" height="40" viewBox="0 0 40 40" fill="none" xmlns="http://www.w3.org/2000/svg">
<path fill-rule="evenodd" clip-rule="evenodd" d="M20.4883 12.155C20.8009 11.8425 21.2247 11.667 21.6667 11.667C22.1086 11.667 22.5325 11.8425 22.845 12.155L29.5117 18.8216C29.8241 19.1342 29.9997 19.558 29.9997 20C29.9997 20.4419 29.8241 20.8658 29.5117 21.1783L22.845 27.845C22.5307 28.1486 22.1097 28.3166 21.6727 28.3128C21.2357 28.309 20.8177 28.1337 20.5086 27.8247C20.1996 27.5157 20.0244 27.0976 20.0206 26.6606C20.0168 26.2236 20.1847 25.8026 20.4883 25.4883L25.9767 20L20.4883 14.5116C20.1759 14.1991 20.0004 13.7752 20.0004 13.3333C20.0004 12.8914 20.1759 12.4675 20.4883 12.155Z" fill="#FBFBFB"/>
<path fill-rule="evenodd" clip-rule="evenodd" d="M10.4883 12.155C10.8009 11.8425 11.2247 11.667 11.6667 11.667C12.1086 11.667 12.5325 11.8425 12.845 12.155L19.5117 18.8216C19.8241 19.1342 19.9997 19.558 19.9997 20C19.9997 20.4419 19.8241 20.8658 19.5117 21.1783L12.845 27.845C12.5307 28.1486 12.1097 28.3166 11.6727 28.3128C11.2357 28.309 10.8177 28.1337 10.5086 27.8247C10.1996 27.5157 10.0244 27.0976 10.0206 26.6606C10.0168 26.2236 10.1847 25.8026 10.4883 25.4883L15.9767 20L10.4883 14.5116C10.1759 14.1991 10.0004 13.7752 10.0004 13.3333C10.0004 12.8914 10.1759 12.4675 10.4883 12.155Z" fill="#FBFBFB"/>
</svg>
