<svg width="172" height="38" viewBox="0 0 172 38" fill="none" xmlns="http://www.w3.org/2000/svg">
<g clip-path="url(#clip0_2080_3)">
<g clip-path="url(#clip1_2080_3)">
<path d="M12.8 34H35.2C35.9426 34 36.6548 34.2107 37.1799 34.5858C37.705 34.9609 38 35.4696 38 36C38 36.5304 37.705 37.0391 37.1799 37.4142C36.6548 37.7893 35.9426 38 35.2 38H12.8C12.0574 38 11.3452 37.7893 10.8201 37.4142C10.295 37.0391 10 36.5304 10 36C10 35.4696 10.295 34.9609 10.8201 34.5858C11.3452 34.2107 12.0574 34 12.8 34Z" fill="#28FE72"/>
<path d="M3.85008 1.02142L19.0239 16.8997C19.5269 17.4261 19.8666 18.0803 19.9683 18.7184C20.0699 19.3565 19.9251 19.9262 19.5658 20.3022C19.2065 20.6782 18.6621 20.8297 18.0523 20.7233C17.4425 20.617 16.8173 20.2615 16.3143 19.7351L1.14047 3.85683C0.637422 3.33043 0.29772 2.67622 0.196089 2.03813C0.0944593 1.40004 0.239226 0.830334 0.598543 0.454335C0.95786 0.0783367 1.50229 -0.0731514 2.11207 0.0331971C2.72185 0.139546 3.34703 0.495019 3.85008 1.02142Z" fill="#28FE72"/>
<path d="M0.9761 34.1432L16.1499 18.2649C16.653 17.7385 17.2781 17.383 17.8879 17.2767C18.4977 17.1703 19.0421 17.3218 19.4015 17.6978C19.7608 18.0738 19.9055 18.6435 19.8039 19.2816C19.7023 19.9197 19.3626 20.5739 18.8595 21.1003L3.68571 36.9786C3.18267 37.505 2.55749 37.8605 1.94771 37.9668C1.33793 38.0732 0.793495 37.9217 0.434178 37.5457C0.0748611 37.1697 -0.0699059 36.6 0.0317242 35.9619C0.133354 35.3238 0.473057 34.6696 0.9761 34.1432Z" fill="#28FE72"/>
</g>
<path d="M26 27.5135V10.4865H42.0292V16.0811C42.0292 18.8784 39.8098 21.1162 36.1108 21.4324L29.2058 22.0405V27.5135H26ZM29.2058 19.1216L35.9875 18.5135C37.3438 18.3919 38.8234 17.7838 38.8234 15.9595V13.4054H29.2058V19.1216Z" fill="white"/>
<path d="M44.4953 27.5135V10.4865H59.2915V13.4054H47.7011V16.2027H56.4556V19.1216H47.7011V24.5946H59.2915V27.5135H44.4953Z" fill="white"/>
<path d="M61.7624 27.5135V10.4865H64.3517L74.3391 22.0405V10.4865H77.545V27.5135H74.9557L64.9682 15.9595V27.5135H61.7624Z" fill="white"/>
<path d="M87.8966 28C82.4713 28 80.2519 25.0811 79.512 24.2297L82.2247 22.527C82.9645 23.3784 84.814 25.0811 87.8966 25.0811C90.116 25.0811 92.0888 24.473 92.0888 22.8919C92.0888 19.4865 80.0053 21.6757 80.0053 15.3514C80.0053 12.6757 82.4713 10 87.1568 10C91.349 10 93.9384 12.1892 94.9248 14.6216L91.7189 15.2297C91.1024 14.0135 89.4995 12.9189 87.0335 12.9189C84.4441 12.9189 83.2111 14.1351 83.2111 15.3514C83.2111 18.6351 95.2947 16.3243 95.2947 22.8919C95.2947 26.5405 92.0888 28 87.8966 28Z" fill="white"/>
<path d="M96.0509 27.5135L101.969 10.4865H109.367L115.286 27.5135H111.957L110.107 22.1622L100.736 23.7432L99.38 27.5135H96.0509ZM101.723 20.7027L109.121 19.4865L107.025 13.4054H104.312L101.723 20.7027Z" fill="white"/>
<path d="M119.73 27.5135V13.4054H113.565V10.4865H129.101V13.4054H122.935V27.5135H119.73Z" fill="white"/>
<path d="M131.071 27.5135V10.4865H134.277V27.5135H131.071Z" fill="white"/>
<path d="M142.169 27.5135L136.004 10.4865H139.333L144.388 24.3514H146.854L151.91 10.4865H155.239L149.074 27.5135H142.169Z" fill="white"/>
<path d="M152.765 27.5135L158.683 10.4865H166.082L172 27.5135H168.671L166.821 22.1622L157.45 23.7432L156.094 27.5135H152.765ZM158.437 20.7027L165.835 19.4865L163.739 13.4054H161.026L158.437 20.7027Z" fill="white"/>
</g>
<defs>
<clipPath id="clip0_2080_3">
<rect width="172" height="38" fill="white"/>
</clipPath>
<clipPath id="clip1_2080_3">
<rect width="38" height="38" fill="white"/>
</clipPath>
</defs>
</svg>
